<svg id="svg" version="1.1" xmlns="http://www.w3.org/2000/svg" xmlns:xlink="http://www.w3.org/1999/xlink" width="400" height="361.546499477534" viewBox="0, 0, 400,361.546499477534"><g id="svgg"><path id="path0" d="M194.963 24.486 C 193.114 27.628,191.235 30.769,190.787 31.465 C 190.000 32.690,181.749 46.470,178.171 52.537 C 175.474 57.109,175.308 57.386,168.174 69.202 C 164.494 75.297,161.221 80.733,160.901 81.281 C 160.582 81.830,158.809 84.801,156.962 87.884 C 155.116 90.967,153.321 93.978,152.973 94.575 C 152.625 95.172,150.266 99.078,147.731 103.255 C 145.195 107.432,142.549 111.826,141.852 113.020 C 138.961 117.965,133.917 126.384,132.534 128.571 C 131.906 129.566,130.685 131.600,129.822 133.092 C 128.959 134.584,127.744 136.618,127.123 137.613 C 124.810 141.314,123.327 143.879,123.328 144.177 C 123.328 144.346,157.600 144.537,199.489 144.602 L 275.649 144.719 274.650 142.974 C 274.100 142.015,273.137 140.416,272.509 139.421 C 270.624 136.432,269.184 134.069,268.432 132.731 C 268.041 132.034,267.021 130.325,266.166 128.933 C 263.321 124.303,255.722 111.752,246.130 95.841 C 240.914 87.188,235.214 77.749,233.463 74.864 C 231.713 71.980,227.395 64.819,223.869 58.951 C 220.343 53.083,215.532 45.108,213.178 41.230 C 210.824 37.351,206.832 30.759,204.308 26.582 C 198.562 17.074,199.236 17.225,194.963 24.486 M200.863 52.092 C 202.406 57.179,201.910 56.781,206.712 56.781 C 211.863 56.781,211.887 56.900,207.434 60.345 C 204.153 62.883,204.033 63.025,204.396 63.953 C 204.847 65.102,206.491 70.588,206.502 70.976 C 206.521 71.628,205.521 71.097,202.590 68.897 C 199.119 66.292,198.901 66.223,197.526 67.297 C 194.860 69.380,191.952 71.277,191.745 71.070 C 191.617 70.942,191.948 69.586,192.481 68.058 C 194.338 62.735,193.927 61.797,188.156 58.199 C 186.586 57.221,187.152 56.729,189.783 56.784 C 191.126 56.813,193.131 56.824,194.240 56.809 L 196.256 56.781 197.638 52.429 C 199.284 47.244,199.389 47.233,200.863 52.092 M219.856 80.741 C 220.644 83.971,221.802 87.224,222.212 87.360 C 222.428 87.432,224.381 87.539,226.552 87.597 C 231.473 87.730,231.500 87.851,227.293 90.943 C 223.400 93.805,223.513 93.453,224.951 98.223 C 226.498 103.354,226.613 103.285,222.293 99.819 C 218.482 96.761,218.987 96.774,215.009 99.634 C 211.561 102.113,211.007 102.372,211.325 101.356 C 211.434 101.008,212.029 99.096,212.647 97.107 L 213.771 93.490 212.533 92.405 C 211.853 91.808,210.389 90.669,209.280 89.873 C 206.293 87.730,206.502 87.484,211.249 87.549 C 216.320 87.618,215.693 88.318,218.636 79.295 C 218.943 78.355,219.409 78.908,219.856 80.741 M180.266 83.363 L 181.622 87.523 186.110 87.523 C 191.659 87.523,191.709 87.681,187.129 90.732 C 182.925 93.532,183.095 93.098,184.415 97.653 C 185.613 101.786,185.559 102.476,184.138 101.173 C 182.515 99.685,178.738 96.926,178.324 96.926 C 178.107 96.926,176.386 98.066,174.499 99.460 C 170.605 102.336,170.637 102.368,172.294 97.267 C 173.700 92.936,173.860 93.437,170.085 90.352 C 166.710 87.594,166.736 87.524,171.157 87.517 C 175.735 87.510,175.508 87.669,176.846 83.532 C 178.306 79.020,178.232 79.204,178.594 79.204 C 178.768 79.204,179.520 81.076,180.266 83.363 M238.707 110.398 C 238.927 111.243,239.544 113.318,240.078 115.009 L 241.051 118.083 245.299 118.185 C 250.390 118.307,250.362 118.225,246.313 121.162 C 242.561 123.883,242.603 123.751,243.938 128.574 C 245.239 133.277,245.303 133.235,241.331 130.265 C 239.783 129.108,238.331 128.052,238.104 127.917 C 237.877 127.783,236.121 128.809,234.203 130.198 C 230.029 133.221,229.840 133.086,231.459 128.228 C 232.888 123.937,232.971 124.207,229.328 121.264 C 225.605 118.256,225.644 118.137,230.380 118.107 C 235.083 118.077,234.647 118.433,236.353 113.229 C 237.936 108.399,238.129 108.167,238.707 110.398 M161.242 113.400 C 162.781 118.184,162.381 117.890,167.360 117.897 C 172.488 117.904,172.484 117.852,167.611 121.519 C 166.686 122.215,165.582 123.054,165.158 123.382 L 164.386 123.979 165.529 127.903 C 166.965 132.827,166.861 132.904,162.946 129.830 C 161.178 128.442,159.606 127.306,159.453 127.306 C 159.161 127.306,154.811 130.523,153.463 131.737 C 151.999 133.054,151.929 132.120,153.192 128.118 C 154.829 122.930,154.974 123.386,150.733 120.360 L 147.037 117.722 151.786 117.621 L 156.536 117.520 157.882 113.357 C 159.498 108.358,159.620 108.360,161.242 113.400 M200.791 114.284 C 201.996 118.816,201.698 118.613,207.143 118.620 C 212.528 118.627,212.530 118.641,207.781 121.951 C 203.482 124.946,203.634 124.546,205.070 129.096 C 206.649 134.101,206.523 134.175,202.251 130.741 C 198.624 127.826,198.610 127.828,192.976 132.338 C 190.918 133.985,190.816 133.376,192.420 129.026 C 194.227 124.129,194.222 124.033,192.134 122.479 C 187.923 119.345,186.980 118.608,186.980 118.444 C 186.980 118.349,188.965 118.309,191.390 118.357 L 195.801 118.445 196.821 115.732 C 197.383 114.241,197.987 112.694,198.165 112.297 C 198.342 111.899,198.584 111.275,198.702 110.910 C 199.141 109.547,199.825 110.651,200.791 114.284 M55.539 245.954 C 36.206 247.957,20.383 263.300,17.146 283.183 C 13.074 308.190,27.837 330.655,51.404 335.313 C 70.237 339.036,86.799 332.463,96.359 317.473 L 96.979 316.501 90.409 312.111 C 86.796 309.697,83.794 307.775,83.738 307.839 C 83.682 307.904,83.369 308.482,83.042 309.125 C 81.354 312.445,75.886 317.026,71.556 318.748 C 53.139 326.072,34.947 312.212,35.023 290.915 C 35.117 264.634,63.129 252.029,80.105 270.629 C 81.400 272.048,82.459 273.337,82.459 273.494 C 82.459 274.160,91.892 268.619,95.451 265.862 L 96.326 265.184 94.673 262.881 C 85.884 250.640,71.279 244.322,55.539 245.954 M120.344 247.294 L 111.754 247.391 111.754 291.152 L 111.754 334.913 120.524 334.817 L 129.295 334.720 129.387 291.159 C 129.437 267.200,129.356 247.508,129.206 247.397 C 129.056 247.287,125.068 247.241,120.344 247.294 M144.394 247.313 L 143.580 247.428 143.580 254.998 L 143.580 262.568 155.805 262.568 C 164.830 262.568,168.142 262.681,168.463 263.002 C 168.795 263.334,168.897 271.859,168.897 299.168 L 168.897 334.901 177.758 334.901 L 186.618 334.901 186.618 299.109 C 186.618 263.801,186.628 263.311,187.335 262.933 C 187.802 262.683,192.245 262.559,200.084 262.578 L 212.116 262.606 212.116 254.991 L 212.116 247.376 178.662 247.287 C 160.262 247.237,144.842 247.249,144.394 247.313 M224.320 247.288 C 223.980 247.401,223.870 249.292,223.870 255.003 L 223.870 262.568 225.769 262.586 C 226.813 262.596,235.648 262.593,245.403 262.581 C 266.931 262.553,265.360 262.056,261.391 267.631 C 259.762 269.919,253.838 278.382,248.227 286.438 C 235.636 304.514,236.991 302.569,229.451 313.382 L 223.147 322.423 223.237 328.571 L 223.327 334.720 256.058 334.720 L 288.788 334.720 288.886 327.215 L 288.984 319.711 267.841 319.711 C 256.212 319.711,246.621 319.586,246.527 319.435 C 246.359 319.164,246.903 318.291,249.731 314.286 C 250.503 313.192,253.028 309.611,255.340 306.329 C 257.653 303.047,261.486 297.627,263.859 294.284 C 266.232 290.941,269.163 286.791,270.372 285.061 C 271.582 283.332,275.909 277.197,279.988 271.429 C 289.241 258.346,288.282 260.467,288.164 253.329 L 288.065 247.331 256.417 247.234 C 239.011 247.182,224.567 247.206,224.320 247.288 M303.225 247.348 C 303.142 247.431,303.074 267.167,303.074 291.206 L 303.074 334.914 311.664 334.817 L 320.253 334.720 320.301 305.606 C 320.333 286.145,320.471 276.492,320.717 276.492 C 320.919 276.492,321.829 277.468,322.738 278.662 C 323.648 279.855,324.524 280.995,324.685 281.193 C 325.949 282.754,332.743 291.374,335.081 294.385 C 336.673 296.433,339.208 299.674,340.714 301.586 C 342.221 303.499,348.292 311.248,354.206 318.807 C 360.119 326.365,365.414 333.079,365.973 333.725 L 366.987 334.901 374.996 334.901 L 383.005 334.901 382.913 291.049 L 382.821 247.197 374.503 247.108 C 369.928 247.060,365.973 247.156,365.715 247.322 C 365.336 247.565,365.250 252.781,365.271 274.238 C 365.302 305.500,365.293 305.609,363.111 302.622 C 362.638 301.976,360.695 299.497,358.793 297.114 C 356.891 294.731,354.928 292.252,354.430 291.605 C 353.933 290.959,348.725 284.390,342.857 277.008 C 336.989 269.625,331.456 262.640,330.561 261.484 C 326.362 256.062,320.069 248.149,319.514 247.594 C 318.938 247.019,303.784 246.789,303.225 247.348 " stroke="none" fill="#1d3c61" fill-rule="evenodd"></path><path id="path1" d="M159.038 156.873 L 115.364 156.965 113.817 159.405 C 112.039 162.207,108.104 168.768,106.510 171.586 C 105.913 172.641,105.247 173.729,105.030 174.003 C 104.074 175.213,102.322 178.684,102.512 178.992 C 102.667 179.243,293.323 179.303,295.570 179.054 C 296.188 178.985,295.650 177.914,291.772 171.490 C 289.534 167.784,287.641 164.601,287.564 164.416 C 287.409 164.045,283.188 157.227,282.971 156.999 C 282.800 156.818,216.847 156.751,159.038 156.873 M93.591 193.942 C 92.992 194.408,90.568 198.263,85.344 207.052 C 83.690 209.837,81.794 212.907,81.132 213.874 C 80.469 214.841,79.928 215.777,79.928 215.954 C 79.928 216.140,129.933 216.275,199.096 216.275 C 264.638 216.275,318.262 216.153,318.260 216.004 C 318.249 215.300,306.059 194.939,305.173 194.143 C 304.273 193.335,94.625 193.136,93.591 193.942 " stroke="none" fill="#b92e35" fill-rule="evenodd"></path><path id="path2" d="M0.000 180.832 L 0.000 361.664 200.000 361.664 L 400.000 361.664 400.000 180.832 L 400.000 0.000 200.000 0.000 L 0.000 0.000 0.000 180.832 M199.835 18.722 C 200.043 18.868,200.547 19.557,200.955 20.253 C 201.362 20.949,204.267 25.750,207.409 30.922 C 216.714 46.236,228.402 65.613,241.221 86.980 C 243.847 91.356,246.493 95.750,247.101 96.745 C 250.730 102.678,258.502 115.480,259.455 117.094 C 260.669 119.152,266.353 128.523,272.306 138.281 C 274.351 141.633,275.885 144.508,275.715 144.671 C 275.546 144.835,241.036 144.875,199.027 144.761 L 122.646 144.554 123.396 143.072 C 123.808 142.258,124.668 140.778,125.307 139.783 C 125.945 138.788,128.642 134.313,131.300 129.837 C 133.957 125.362,136.404 121.293,136.736 120.796 C 137.554 119.572,186.366 38.073,192.404 27.848 C 198.248 17.954,198.428 17.732,199.835 18.722 M198.581 50.677 C 196.877 57.655,197.077 57.454,191.682 57.595 L 188.246 57.685 190.364 59.313 C 191.529 60.208,192.954 61.240,193.529 61.607 C 194.825 62.432,194.824 62.483,193.455 66.536 C 192.052 70.686,192.067 70.695,195.820 68.028 C 199.543 65.382,198.634 65.360,202.383 68.187 C 206.126 71.010,205.926 71.099,204.852 67.089 C 203.742 62.942,203.753 62.436,204.973 61.640 C 206.541 60.617,210.195 57.508,209.874 57.471 C 209.715 57.452,208.038 57.455,206.148 57.477 C 201.930 57.527,202.190 57.727,200.758 53.345 C 199.321 48.949,199.076 48.649,198.581 50.677 M217.724 83.483 C 216.139 88.384,216.554 88.037,212.040 88.246 L 208.137 88.427 211.099 90.597 C 214.565 93.137,214.567 93.143,213.009 97.556 C 211.572 101.627,211.593 101.639,215.293 98.903 C 218.950 96.197,218.540 96.170,222.524 99.386 C 225.495 101.783,225.507 101.775,224.397 98.177 C 222.933 93.435,222.867 93.616,227.236 90.416 L 229.951 88.427 226.458 88.337 C 221.583 88.212,221.436 88.159,220.971 86.344 C 220.344 83.897,219.119 79.928,218.990 79.928 C 218.926 79.928,218.356 81.527,217.724 83.483 M177.184 84.028 L 175.895 87.703 172.034 87.806 C 169.863 87.864,168.174 88.062,168.174 88.258 C 168.174 88.450,168.306 88.608,168.468 88.608 C 168.630 88.608,169.942 89.600,171.382 90.813 C 174.357 93.316,174.304 93.028,172.655 97.803 C 171.563 100.965,171.572 101.130,172.785 100.181 C 173.332 99.752,174.809 98.671,176.067 97.778 L 178.354 96.155 181.735 98.696 L 185.116 101.238 184.059 98.110 C 182.398 93.196,182.899 92.244,188.788 89.125 L 190.054 88.455 187.734 88.185 C 186.458 88.037,185.284 87.996,185.124 88.095 C 184.964 88.193,184.020 88.166,183.026 88.034 C 181.025 87.769,181.064 87.829,179.593 82.743 C 178.753 79.841,178.630 79.906,177.184 84.028 M159.352 110.307 C 159.248 110.606,158.717 112.225,158.172 113.905 C 156.765 118.240,156.604 118.357,152.227 118.206 C 150.256 118.139,148.643 118.123,148.643 118.171 C 148.644 118.219,149.824 119.134,151.266 120.204 C 155.507 123.350,155.340 122.885,153.882 127.478 C 152.361 132.273,152.225 132.149,155.875 129.296 C 159.555 126.421,159.381 126.422,162.929 129.264 C 166.352 132.006,166.319 132.035,164.926 127.510 C 164.325 125.559,163.834 123.916,163.834 123.860 C 163.834 123.803,165.014 122.899,166.456 121.849 C 167.898 120.800,169.458 119.605,169.923 119.193 L 170.767 118.445 166.505 118.264 L 162.242 118.083 160.892 113.924 C 160.150 111.637,159.457 110.009,159.352 110.307 M236.569 114.018 C 234.957 118.889,235.272 118.626,231.059 118.626 C 229.094 118.626,227.486 118.777,227.486 118.961 C 227.486 119.306,232.304 123.184,233.042 123.433 C 233.388 123.550,232.184 127.958,230.800 131.646 C 230.619 132.128,230.680 132.128,231.345 131.646 C 233.637 129.984,237.608 127.306,237.781 127.306 C 238.040 127.306,241.459 129.689,242.812 130.812 C 244.248 132.004,244.260 131.894,243.172 127.533 C 242.642 125.411,242.274 123.627,242.352 123.570 C 245.341 121.400,248.119 119.251,248.287 118.979 C 248.424 118.757,247.042 118.626,244.567 118.626 L 240.629 118.626 239.392 114.467 C 237.899 109.447,238.072 109.474,236.569 114.018 M197.999 113.992 C 196.253 119.290,196.598 118.986,192.305 118.998 L 188.608 119.009 189.728 119.993 C 190.344 120.534,191.686 121.624,192.711 122.416 C 194.926 124.126,194.877 123.686,193.309 127.873 C 191.574 132.505,191.621 132.741,193.942 131.068 C 198.072 128.091,198.934 127.595,199.379 127.935 C 199.621 128.120,201.004 129.215,202.452 130.369 C 203.900 131.523,205.146 132.405,205.220 132.328 C 205.327 132.217,204.425 128.297,203.573 125.173 C 203.428 124.639,205.845 122.585,208.859 120.681 C 210.911 119.384,211.001 119.429,205.656 119.070 L 201.727 118.807 200.573 115.111 C 199.105 110.409,199.170 110.437,197.999 113.992 M283.159 156.794 C 284.095 157.730,296.506 178.865,296.262 179.108 C 295.981 179.390,101.999 179.516,101.718 179.234 C 101.632 179.149,103.314 176.177,105.456 172.631 C 107.598 169.086,110.628 164.069,112.189 161.483 L 115.028 156.781 161.944 156.600 C 238.911 156.304,282.739 156.374,283.159 156.794 M212.548 193.489 L 305.205 193.490 306.448 195.389 C 310.152 201.050,318.626 215.571,318.626 216.257 C 318.626 216.521,282.311 216.637,199.096 216.637 C 115.886 216.637,79.566 216.521,79.566 216.257 C 79.566 216.048,81.153 213.281,83.092 210.108 C 85.032 206.935,88.083 201.909,89.873 198.940 L 93.128 193.541 94.937 193.373 C 95.931 193.281,101.953 193.269,108.318 193.347 C 114.684 193.425,161.587 193.489,212.548 193.489 M68.459 245.933 C 79.264 248.018,87.921 253.354,94.557 262.017 C 96.863 265.028,96.984 265.621,95.464 266.473 C 94.858 266.811,92.783 268.126,90.852 269.394 C 88.922 270.663,86.286 272.344,84.995 273.132 L 82.648 274.563 82.102 273.721 C 77.682 266.910,69.101 262.206,61.097 262.206 C 41.390 262.206,29.097 285.926,38.684 305.454 C 47.383 323.172,71.709 325.393,82.304 309.436 C 83.043 308.324,83.769 307.414,83.919 307.414 C 84.144 307.414,93.538 313.661,96.546 315.811 L 97.414 316.432 96.721 317.720 C 86.195 337.264,55.698 342.846,35.081 329.001 C 13.622 314.589,9.565 280.986,26.865 260.940 C 37.393 248.742,53.290 243.006,68.459 245.933 M129.387 246.996 C 129.748 247.012,129.821 255.949,129.748 291.049 L 129.656 335.081 120.841 335.178 C 114.641 335.247,111.877 335.153,111.528 334.863 C 110.605 334.097,110.808 247.437,111.733 247.095 C 112.254 246.902,125.543 246.828,129.387 246.996 M212.477 255.059 L 212.477 263.110 199.910 263.205 L 187.342 263.301 187.342 298.875 C 187.342 328.609,187.260 334.518,186.845 334.863 C 186.495 335.153,183.732 335.247,177.532 335.178 L 168.716 335.081 168.531 299.277 C 168.429 279.584,168.307 263.433,168.260 263.386 C 168.212 263.339,162.599 263.258,155.787 263.205 L 143.400 263.110 143.302 255.089 L 143.205 247.068 144.026 246.952 C 144.477 246.888,160.063 246.874,178.662 246.921 L 212.477 247.007 212.477 255.059 M288.525 253.449 L 288.624 259.942 281.873 269.483 C 278.161 274.730,272.595 282.604,269.506 286.980 C 266.416 291.356,262.004 297.597,259.702 300.849 C 255.629 306.602,254.096 308.785,252.303 311.392 C 251.824 312.089,250.447 314.030,249.242 315.706 C 248.038 317.382,247.135 318.887,247.237 319.051 C 247.338 319.215,256.854 319.349,268.383 319.349 L 289.345 319.349 289.248 327.215 L 289.150 335.081 256.259 335.174 C 238.168 335.225,223.243 335.141,223.090 334.989 C 222.938 334.837,222.789 331.929,222.759 328.527 L 222.704 322.341 231.111 310.266 C 235.735 303.625,240.676 296.520,242.092 294.478 C 243.507 292.435,245.832 289.099,247.257 287.064 C 248.682 285.029,250.351 282.631,250.965 281.736 C 251.580 280.841,252.855 279.019,253.799 277.688 C 254.743 276.356,256.492 273.856,257.685 272.132 C 258.879 270.408,260.710 267.836,261.754 266.417 C 262.798 264.997,263.653 263.715,263.653 263.567 C 263.653 263.418,254.661 263.255,243.671 263.204 L 223.689 263.110 223.591 255.180 C 223.516 249.081,223.600 247.179,223.953 246.946 C 224.206 246.780,238.816 246.714,256.420 246.800 L 288.427 246.956 288.525 253.449 M321.859 249.781 C 323.164 251.401,324.882 253.571,325.678 254.604 C 326.474 255.637,327.857 257.411,328.752 258.546 C 334.485 265.814,338.472 270.852,341.953 275.225 C 344.141 277.974,347.884 282.706,350.271 285.740 C 352.658 288.774,355.506 292.348,356.600 293.681 C 357.694 295.015,359.880 297.759,361.456 299.779 C 363.438 302.317,364.414 303.310,364.615 302.992 C 364.776 302.739,364.910 290.044,364.913 274.781 L 364.919 247.030 365.732 246.831 C 366.180 246.721,370.289 246.677,374.864 246.733 L 383.183 246.835 383.183 290.958 L 383.183 335.081 375.091 335.179 C 368.965 335.253,366.864 335.165,366.442 334.817 C 365.944 334.406,362.547 330.179,358.852 325.372 C 358.111 324.408,356.365 322.186,354.973 320.434 C 353.580 318.682,351.790 316.402,350.995 315.367 C 350.199 314.333,348.490 312.160,347.197 310.539 C 345.904 308.919,344.114 306.645,343.219 305.486 C 342.324 304.326,340.615 302.115,339.421 300.571 C 338.228 299.027,334.647 294.460,331.465 290.422 C 328.282 286.384,324.734 281.842,323.580 280.329 C 322.427 278.815,321.317 277.414,321.116 277.215 C 320.867 276.971,320.785 286.155,320.861 305.606 C 320.923 321.420,320.843 334.561,320.682 334.810 C 320.338 335.345,303.249 335.476,302.921 334.946 C 302.650 334.506,302.634 247.436,302.905 246.997 C 303.042 246.776,306.222 246.678,311.306 246.738 L 319.486 246.835 321.859 249.781 " stroke="none" fill="#fbfbfb" fill-rule="evenodd"></path><path id="path3" d="M189.107 33.363 C 188.870 33.811,188.440 34.584,188.152 35.081 C 187.648 35.949,187.652 35.956,188.235 35.262 C 188.956 34.405,189.968 32.550,189.715 32.550 C 189.617 32.550,189.343 32.916,189.107 33.363 M213.562 41.591 C 213.871 42.188,214.205 42.676,214.304 42.676 C 214.404 42.676,214.233 42.188,213.924 41.591 C 213.615 40.995,213.282 40.506,213.182 40.506 C 213.083 40.506,213.254 40.995,213.562 41.591 M198.790 48.903 C 198.675 49.340,198.657 49.772,198.749 49.864 C 198.840 49.955,198.915 49.831,198.915 49.587 C 198.915 49.343,199.078 49.244,199.277 49.367 C 199.476 49.490,199.638 49.346,199.638 49.048 C 199.638 48.155,199.013 48.049,198.790 48.903 M218.480 49.707 C 218.898 50.415,219.309 50.995,219.394 50.995 C 219.651 50.995,218.477 48.887,218.085 48.645 C 217.884 48.521,218.062 48.999,218.480 49.707 M200.413 52.080 C 200.413 52.378,200.552 52.948,200.723 53.345 C 200.919 53.801,201.034 53.868,201.034 53.526 C 201.034 53.228,200.894 52.658,200.723 52.260 C 200.527 51.804,200.413 51.738,200.413 52.080 M197.287 54.252 C 196.420 57.114,196.443 57.102,191.720 57.221 L 187.643 57.324 188.665 58.228 C 189.531 58.994,189.582 59.007,189.001 58.318 L 188.315 57.505 191.958 57.505 C 193.961 57.505,195.850 57.409,196.154 57.292 C 196.686 57.088,198.433 52.562,198.106 52.235 C 198.018 52.147,197.649 53.054,197.287 54.252 M201.808 56.702 C 201.808 57.324,203.139 57.561,205.798 57.413 L 208.137 57.282 205.407 57.213 C 203.857 57.173,202.489 56.955,202.242 56.709 C 201.913 56.379,201.808 56.377,201.808 56.702 M209.866 57.364 C 210.058 57.556,207.325 59.976,204.652 61.981 C 203.831 62.598,203.840 62.598,204.882 61.988 C 207.495 60.459,211.063 57.143,210.096 57.143 C 209.848 57.143,209.744 57.243,209.866 57.364 M189.873 59.047 C 189.873 59.127,190.565 59.741,191.410 60.413 C 192.256 61.085,192.718 61.349,192.437 60.999 C 191.908 60.341,189.873 58.791,189.873 59.047 M193.538 61.924 C 193.863 62.189,194.210 62.726,194.310 63.119 C 194.474 63.767,194.495 63.759,194.533 63.033 C 194.559 62.533,194.269 62.083,193.761 61.837 C 193.060 61.497,193.029 61.509,193.538 61.924 M198.146 66.423 C 197.693 66.972,197.719 66.981,198.443 66.530 C 199.139 66.096,199.338 66.122,200.070 66.743 L 200.904 67.450 200.215 66.637 C 199.395 65.668,198.819 65.609,198.146 66.423 M204.735 66.398 C 204.717 66.615,204.944 67.592,205.240 68.568 C 205.893 70.720,205.888 70.624,205.335 70.312 C 204.976 70.109,204.974 70.156,205.329 70.538 C 206.147 71.421,206.203 70.620,205.482 68.301 C 205.090 67.037,204.754 66.181,204.735 66.398 M168.354 67.993 C 168.046 68.590,167.875 69.078,167.974 69.078 C 168.074 69.078,168.408 68.590,168.716 67.993 C 169.025 67.396,169.196 66.908,169.096 66.908 C 168.997 66.908,168.663 67.396,168.354 67.993 M201.085 67.383 C 201.085 67.472,201.682 68.001,202.413 68.558 C 203.143 69.115,203.626 69.386,203.487 69.160 C 203.201 68.697,201.085 67.131,201.085 67.383 M192.049 70.085 C 192.043 70.966,193.109 70.726,193.720 69.709 C 193.887 69.431,193.746 69.458,193.351 69.778 C 192.795 70.229,192.669 70.229,192.383 69.778 C 192.130 69.378,192.053 69.449,192.049 70.085 M218.655 79.801 C 218.530 80.126,218.513 80.478,218.617 80.582 C 218.721 80.686,218.809 80.541,218.812 80.259 C 218.817 79.837,218.880 79.843,219.168 80.289 C 219.470 80.757,219.520 80.747,219.524 80.220 C 219.532 79.372,218.931 79.082,218.655 79.801 M178.132 80.249 C 177.989 80.699,177.969 81.163,178.086 81.281 C 178.204 81.399,178.305 81.183,178.312 80.802 C 178.323 80.122,178.334 80.123,178.854 80.811 C 179.146 81.197,179.385 81.350,179.385 81.151 C 179.385 80.118,178.399 79.409,178.132 80.249 M236.843 80.108 C 237.039 80.506,237.463 81.157,237.787 81.555 L 238.376 82.278 238.021 81.555 C 237.826 81.157,237.401 80.506,237.077 80.108 L 236.488 79.385 236.843 80.108 M177.257 82.856 C 177.035 83.493,176.865 84.193,176.879 84.412 C 176.893 84.631,177.138 84.173,177.423 83.395 C 177.708 82.617,177.878 81.917,177.801 81.840 C 177.724 81.762,177.479 82.220,177.257 82.856 M216.560 85.904 C 216.448 86.297,216.247 86.944,216.112 87.342 C 215.977 87.740,216.132 87.608,216.456 87.049 C 216.779 86.490,216.981 85.843,216.904 85.612 C 216.826 85.380,216.672 85.512,216.560 85.904 M180.470 85.818 C 180.470 86.334,181.334 87.884,181.622 87.884 C 181.793 87.884,181.654 87.437,181.311 86.890 C 180.499 85.591,180.470 85.554,180.470 85.818 M220.987 86.438 C 220.988 87.853,221.568 88.061,226.026 88.246 C 228.422 88.345,230.381 88.310,230.381 88.167 C 230.380 88.024,228.472 87.861,226.140 87.805 C 222.027 87.706,221.887 87.677,221.444 86.799 C 221.193 86.302,220.987 86.139,220.987 86.438 M175.769 87.101 C 175.769 87.346,175.127 87.548,174.231 87.583 L 172.694 87.644 174.098 87.789 C 175.447 87.928,176.530 87.441,176.016 86.926 C 175.880 86.790,175.769 86.869,175.769 87.101 M188.164 88.150 C 189.301 88.240,189.807 88.422,189.646 88.684 C 189.498 88.923,189.566 88.978,189.818 88.823 C 190.745 88.250,190.132 87.888,188.336 87.949 L 186.438 88.015 188.164 88.150 M207.595 88.103 C 207.595 88.332,208.581 89.162,210.917 90.899 C 211.676 91.464,212.297 91.849,212.297 91.756 C 212.297 91.664,211.361 90.877,210.217 90.007 L 208.137 88.427 211.935 88.226 L 215.732 88.026 211.664 87.955 C 209.426 87.916,207.595 87.983,207.595 88.103 M168.535 88.703 C 168.535 88.783,169.227 89.398,170.072 90.070 C 170.918 90.742,171.380 91.005,171.099 90.656 C 170.570 89.998,168.535 88.448,168.535 88.703 M186.883 90.248 C 186.141 90.753,185.533 91.243,185.533 91.338 C 185.533 91.433,186.184 91.080,186.980 90.554 C 188.243 89.718,188.670 89.331,188.330 89.331 C 188.277 89.331,187.626 89.744,186.883 90.248 M172.559 92.043 C 173.081 92.640,173.597 93.373,173.706 93.671 C 173.876 94.138,173.907 94.135,173.932 93.648 C 173.947 93.337,173.431 92.605,172.785 92.021 L 171.609 90.958 172.559 92.043 M183.906 92.437 L 182.821 93.369 183.996 92.591 C 184.643 92.163,185.172 91.743,185.172 91.657 C 185.172 91.386,185.019 91.481,183.906 92.437 M213.785 94.093 C 213.762 94.425,213.650 94.995,213.535 95.359 C 213.338 95.987,213.349 95.988,213.740 95.377 C 213.968 95.023,214.080 94.453,213.990 94.112 C 213.843 93.552,213.823 93.550,213.785 94.093 M183.049 94.575 C 183.058 95.337,184.376 99.176,184.415 98.553 C 184.428 98.354,184.123 97.215,183.739 96.022 C 183.355 94.828,183.045 94.177,183.049 94.575 M172.941 95.907 C 172.726 96.753,172.613 97.507,172.689 97.584 C 172.765 97.660,173.012 97.038,173.237 96.203 C 173.462 95.367,173.575 94.612,173.489 94.526 C 173.402 94.439,173.156 95.061,172.941 95.907 M152.037 95.208 C 150.792 97.320,150.710 97.500,151.345 96.745 C 152.079 95.870,152.712 94.756,152.475 94.756 C 152.381 94.756,152.183 94.959,152.037 95.208 M217.165 97.568 C 215.947 98.659,216.258 98.563,217.861 97.352 C 218.435 96.919,218.760 96.569,218.584 96.574 C 218.408 96.579,217.769 97.027,217.165 97.568 M219.168 97.026 C 219.168 97.095,219.697 97.539,220.344 98.012 C 221.071 98.544,221.324 98.632,221.006 98.241 C 220.525 97.648,219.168 96.751,219.168 97.026 M171.672 99.619 C 171.363 100.525,171.230 101.266,171.376 101.266 C 171.646 101.266,172.553 98.292,172.346 98.085 C 172.284 98.023,171.981 98.713,171.672 99.619 M172.986 100.026 L 171.971 100.957 173.146 100.139 C 173.793 99.689,174.322 99.271,174.322 99.209 C 174.322 98.923,173.922 99.168,172.986 100.026 M182.278 99.228 C 182.278 99.970,185.025 101.508,185.060 100.785 C 185.081 100.353,185.017 100.211,184.919 100.468 C 184.789 100.807,184.400 100.677,183.509 99.997 C 182.832 99.481,182.278 99.135,182.278 99.228 M224.204 100.997 C 225.192 102.115,225.678 102.256,225.678 101.425 C 225.678 101.115,225.505 100.968,225.294 101.099 C 225.082 101.230,224.553 101.037,224.118 100.671 C 223.455 100.113,223.469 100.165,224.204 100.997 M146.792 103.888 C 146.555 104.335,146.125 105.108,145.837 105.606 C 145.334 106.473,145.337 106.481,145.921 105.787 C 146.642 104.929,147.653 103.074,147.400 103.074 C 147.302 103.074,147.029 103.440,146.792 103.888 M252.756 106.510 C 252.952 106.908,253.377 107.559,253.701 107.957 L 254.289 108.680 253.934 107.957 C 253.739 107.559,253.314 106.908,252.990 106.510 L 252.401 105.787 252.756 106.510 M159.132 109.937 C 159.132 110.164,159.283 110.257,159.468 110.143 C 159.653 110.028,159.872 110.222,159.955 110.573 C 160.081 111.103,160.101 111.093,160.072 110.517 C 160.034 109.784,159.132 109.227,159.132 109.937 M238.387 111.031 C 238.387 111.329,238.527 111.899,238.698 112.297 C 238.894 112.752,239.009 112.819,239.009 112.477 C 239.009 112.179,238.869 111.609,238.698 111.212 C 238.502 110.756,238.387 110.689,238.387 111.031 M199.689 112.116 C 199.689 112.414,199.829 112.984,200.000 113.382 C 200.196 113.837,200.311 113.904,200.311 113.562 C 200.311 113.264,200.171 112.694,200.000 112.297 C 199.804 111.841,199.689 111.774,199.689 112.116 M196.781 116.436 L 195.991 118.603 191.815 118.705 L 187.640 118.807 188.847 119.682 C 189.912 120.454,189.975 120.466,189.377 119.785 L 188.700 119.014 192.450 118.910 L 196.200 118.807 197.039 116.691 C 197.500 115.527,197.809 114.506,197.725 114.421 C 197.640 114.337,197.216 115.244,196.781 116.436 M257.820 114.828 C 258.015 115.226,258.440 115.877,258.764 116.275 L 259.353 116.998 258.998 116.275 C 258.802 115.877,258.377 115.226,258.054 114.828 L 257.465 114.105 257.820 114.828 M162.116 117.541 C 162.198 117.847,162.723 118.108,163.319 118.141 C 164.229 118.190,164.251 118.172,163.472 118.014 C 162.975 117.912,162.433 117.642,162.269 117.414 C 162.069 117.136,162.019 117.178,162.116 117.541 M234.964 117.685 C 234.833 118.027,234.127 118.272,233.021 118.359 L 231.284 118.495 232.958 118.560 C 234.499 118.621,235.919 117.896,235.358 117.336 C 235.255 117.232,235.078 117.390,234.964 117.685 M147.920 117.861 C 147.920 118.037,148.348 118.461,148.870 118.803 L 149.820 119.426 149.142 118.495 C 148.455 117.552,147.920 117.275,147.920 117.861 M150.904 118.168 C 151.849 118.243,153.395 118.243,154.340 118.168 C 155.285 118.094,154.512 118.033,152.622 118.033 C 150.732 118.033,149.959 118.094,150.904 118.168 M169.389 118.155 L 170.786 118.312 169.932 119.254 L 169.078 120.195 170.060 119.501 C 171.362 118.581,171.145 118.093,169.411 118.040 L 167.993 117.997 169.389 118.155 M201.773 118.737 C 201.935 118.897,202.944 118.976,204.017 118.913 L 205.967 118.796 203.724 118.621 C 202.490 118.524,201.612 118.576,201.773 118.737 M227.125 119.168 C 227.592 119.665,228.060 120.072,228.164 120.072 C 228.269 120.072,228.159 119.877,227.920 119.638 C 227.174 118.892,227.432 118.670,229.204 118.530 C 230.712 118.411,230.638 118.386,228.599 118.329 L 226.275 118.264 227.125 119.168 M247.684 118.524 L 248.533 118.685 247.684 119.617 L 246.835 120.549 247.997 119.710 C 249.311 118.762,249.241 118.241,247.809 118.313 C 246.906 118.359,246.897 118.374,247.684 118.524 M261.116 120.344 C 261.750 121.388,262.349 122.242,262.447 122.242 C 262.691 122.242,261.137 119.662,260.487 118.987 C 260.199 118.689,260.482 119.299,261.116 120.344 M208.779 119.254 C 209.997 119.349,210.430 119.517,210.247 119.821 C 210.094 120.077,210.238 120.051,210.600 119.757 C 211.501 119.026,211.408 118.981,209.132 119.053 C 207.062 119.117,207.061 119.118,208.779 119.254 M228.933 120.554 C 228.933 120.654,229.584 121.250,230.380 121.881 C 231.175 122.511,231.826 122.945,231.826 122.846 C 231.826 122.746,231.175 122.149,230.380 121.519 C 229.584 120.889,228.933 120.455,228.933 120.554 M245.194 121.545 L 243.942 122.656 245.298 121.683 C 246.497 120.823,246.887 120.434,246.551 120.434 C 246.493 120.434,245.883 120.934,245.194 121.545 M135.874 122.152 C 134.578 124.235,134.484 124.412,134.667 124.412 C 134.761 124.412,135.339 123.599,135.951 122.604 C 136.563 121.609,136.986 120.796,136.891 120.796 C 136.796 120.796,136.338 121.406,135.874 122.152 M166.365 121.925 C 165.105 123.030,165.104 123.031,166.264 122.260 C 166.904 121.834,167.524 121.330,167.642 121.140 C 167.990 120.576,167.701 120.754,166.365 121.925 M190.597 120.909 C 190.597 120.998,191.194 121.527,191.924 122.084 C 192.655 122.641,193.138 122.912,192.999 122.686 C 192.712 122.223,190.597 120.658,190.597 120.909 M207.344 121.726 L 206.329 122.657 207.505 121.839 C 208.151 121.389,208.680 120.971,208.680 120.908 C 208.680 120.623,208.280 120.868,207.344 121.726 M242.948 123.107 C 242.599 123.372,242.327 123.895,242.343 124.271 C 242.365 124.782,242.422 124.818,242.571 124.412 C 242.681 124.114,243.019 123.585,243.322 123.237 C 243.973 122.489,243.828 122.439,242.948 123.107 M194.005 124.639 C 193.988 125.403,194.090 125.702,194.271 125.417 C 194.641 124.833,194.660 123.784,194.304 123.565 C 194.155 123.474,194.020 123.957,194.005 124.639 M164.246 125.136 C 164.246 125.434,164.386 126.004,164.557 126.401 C 164.753 126.857,164.868 126.924,164.868 126.582 C 164.868 126.284,164.728 125.714,164.557 125.316 C 164.361 124.861,164.246 124.794,164.246 125.136 M153.743 126.799 C 153.535 127.553,153.430 128.234,153.510 128.314 C 153.589 128.393,153.825 127.842,154.033 127.089 C 154.241 126.335,154.346 125.654,154.266 125.574 C 154.187 125.495,153.951 126.046,153.743 126.799 M243.099 127.125 C 243.094 127.523,243.229 128.174,243.400 128.571 C 243.796 129.493,243.796 128.542,243.400 127.306 C 243.167 126.579,243.108 126.543,243.099 127.125 M157.796 127.874 L 156.781 128.805 157.957 127.987 C 158.603 127.538,159.132 127.119,159.132 127.057 C 159.132 126.771,158.732 127.016,157.796 127.874 M200.112 128.641 C 200.416 129.133,203.255 131.424,203.255 131.177 C 203.255 131.085,202.490 130.382,201.554 129.615 C 200.618 128.849,199.970 128.410,200.112 128.641 M204.763 129.656 C 204.757 130.054,204.892 130.705,205.063 131.103 C 205.459 132.025,205.459 131.074,205.063 129.837 C 204.831 129.110,204.772 129.075,204.763 129.656 M232.898 130.587 L 231.646 131.698 233.002 130.725 C 234.200 129.865,234.590 129.476,234.254 129.476 C 234.197 129.476,233.586 129.976,232.898 130.587 M243.994 130.515 C 244.156 131.477,244.096 131.677,243.710 131.457 C 243.317 131.234,243.308 131.274,243.665 131.659 C 244.358 132.406,244.635 131.782,244.190 130.476 L 243.788 129.295 243.994 130.515 M165.065 131.193 C 165.817 132.082,166.365 132.247,166.365 131.585 C 166.365 131.353,166.256 131.272,166.123 131.405 C 165.990 131.538,165.543 131.362,165.129 131.013 C 164.377 130.380,164.377 130.380,165.065 131.193 M191.591 131.991 C 191.276 133.148,191.425 133.252,192.280 132.468 C 192.666 132.115,192.784 131.957,192.543 132.117 C 192.262 132.303,192.055 132.173,191.969 131.755 C 191.860 131.233,191.785 131.280,191.591 131.991 M204.125 131.917 C 204.843 132.765,205.787 133.009,205.787 132.348 C 205.787 132.137,205.614 132.071,205.402 132.202 C 205.191 132.333,204.662 132.139,204.227 131.771 L 203.436 131.103 204.125 131.917 M268.791 132.942 C 269.247 133.755,269.912 134.813,270.269 135.293 C 270.626 135.773,270.545 135.501,270.088 134.689 C 269.632 133.876,268.967 132.818,268.610 132.338 C 268.253 131.858,268.334 132.130,268.791 132.942 M128.167 134.991 C 126.922 137.103,126.841 137.283,127.475 136.528 C 128.209 135.653,128.843 134.539,128.605 134.539 C 128.511 134.539,128.313 134.742,128.167 134.991 M272.286 138.698 C 272.482 139.096,272.906 139.747,273.230 140.145 L 273.819 140.868 273.464 140.145 C 273.269 139.747,272.844 139.096,272.520 138.698 L 271.931 137.975 272.286 138.698 M275.206 143.466 C 275.416 143.901,275.588 144.347,275.588 144.458 C 275.588 144.568,267.003 144.703,256.510 144.758 L 237.432 144.856 256.570 144.851 C 276.335 144.846,276.548 144.830,275.392 143.385 C 274.841 142.697,274.835 142.699,275.206 143.466 M213.291 156.509 C 215.927 156.571,220.240 156.571,222.875 156.509 C 225.511 156.447,223.354 156.397,218.083 156.397 C 212.812 156.397,210.656 156.447,213.291 156.509 M235.900 156.498 C 236.450 156.581,237.264 156.579,237.708 156.493 C 238.153 156.407,237.703 156.339,236.709 156.342 C 235.714 156.345,235.350 156.415,235.900 156.498 M243.309 156.508 C 245.348 156.573,248.684 156.573,250.723 156.508 C 252.762 156.444,251.094 156.391,247.016 156.391 C 242.939 156.391,241.270 156.444,243.309 156.508 M276.673 156.501 L 282.640 156.603 283.494 157.596 C 283.963 158.142,284.223 158.345,284.071 158.047 C 283.163 156.257,283.062 156.234,276.707 156.320 L 270.705 156.400 276.673 156.501 M114.604 157.414 C 114.367 157.862,113.935 158.635,113.644 159.132 L 113.115 160.036 113.875 159.132 C 114.293 158.635,114.730 157.944,114.846 157.596 C 115.045 157.001,117.508 156.960,157.981 156.872 L 200.904 156.778 157.969 156.689 L 115.034 156.600 114.604 157.414 M258.861 156.856 C 259.308 156.942,260.041 156.942,260.488 156.856 C 260.936 156.769,260.570 156.699,259.675 156.699 C 258.779 156.699,258.413 156.769,258.861 156.856 M285.379 160.759 C 285.826 161.555,286.347 162.369,286.537 162.568 C 287.078 163.135,285.840 160.844,285.168 160.036 C 284.838 159.638,284.933 159.964,285.379 160.759 M111.349 162.839 C 111.112 163.287,110.682 164.060,110.394 164.557 C 109.891 165.424,109.894 165.432,110.478 164.738 C 111.198 163.881,112.210 162.025,111.957 162.025 C 111.859 162.025,111.586 162.392,111.349 162.839 M287.996 165.099 C 288.302 165.696,288.823 166.510,289.154 166.908 C 289.484 167.306,289.389 166.980,288.942 166.184 C 287.957 164.429,287.219 163.583,287.996 165.099 M109.139 166.456 C 108.348 167.676,107.639 169.128,108.035 168.716 C 108.542 168.189,110.034 165.642,109.836 165.642 C 109.743 165.642,109.430 166.008,109.139 166.456 M290.852 169.832 C 291.308 170.645,291.974 171.702,292.331 172.183 C 292.687 172.663,292.606 172.391,292.150 171.579 C 291.693 170.766,291.028 169.708,290.671 169.228 C 290.314 168.747,290.396 169.019,290.852 169.832 M106.583 170.615 C 106.500 170.764,105.975 171.700,105.417 172.694 C 104.859 173.689,104.570 174.340,104.775 174.141 C 105.298 173.634,107.163 170.344,106.927 170.344 C 106.821 170.344,106.666 170.466,106.583 170.615 M293.840 174.864 C 294.397 175.859,295.020 176.835,295.225 177.034 C 295.430 177.233,295.143 176.582,294.586 175.588 C 294.030 174.593,293.407 173.617,293.202 173.418 C 292.996 173.219,293.284 173.870,293.840 174.864 M102.534 177.424 C 102.000 178.335,101.623 179.140,101.696 179.213 C 101.769 179.286,102.281 178.540,102.834 177.557 C 104.100 175.305,103.843 175.192,102.534 177.424 M194.505 179.294 C 196.953 179.356,200.859 179.356,203.185 179.293 C 205.511 179.231,203.508 179.179,198.734 179.179 C 193.960 179.180,192.057 179.231,194.505 179.294 M100.251 193.398 C 102.379 193.462,105.959 193.462,108.208 193.399 C 110.457 193.335,108.716 193.283,104.340 193.283 C 99.964 193.282,98.124 193.334,100.251 193.398 M307.088 196.904 C 307.505 197.612,307.917 198.192,308.002 198.192 C 308.259 198.192,307.085 196.084,306.693 195.842 C 306.492 195.718,306.670 196.196,307.088 196.904 M88.611 200.995 C 86.283 204.839,86.360 204.702,86.548 204.702 C 86.633 204.702,87.564 203.278,88.618 201.537 C 90.868 197.821,90.863 197.830,90.674 197.830 C 90.594 197.830,89.665 199.254,88.611 200.995 M308.888 199.819 C 309.334 200.615,309.855 201.429,310.045 201.627 C 310.587 202.195,309.348 199.904,308.676 199.096 C 308.346 198.698,308.441 199.024,308.888 199.819 M312.190 205.275 C 312.647 206.088,313.312 207.145,313.669 207.626 C 314.026 208.106,313.944 207.834,313.488 207.022 C 313.032 206.209,312.366 205.151,312.009 204.671 C 311.653 204.190,311.734 204.462,312.190 205.275 M314.828 209.765 C 315.137 210.362,315.471 210.850,315.570 210.850 C 315.670 210.850,315.498 210.362,315.190 209.765 C 314.881 209.168,314.547 208.680,314.448 208.680 C 314.349 208.680,314.520 209.168,314.828 209.765 M81.731 212.387 C 81.097 213.431,80.814 214.042,81.101 213.743 C 81.752 213.068,83.306 210.488,83.062 210.488 C 82.964 210.488,82.365 211.343,81.731 212.387 M317.360 214.105 C 317.668 214.702,318.002 215.190,318.102 215.190 C 318.201 215.190,318.030 214.702,317.722 214.105 C 317.413 213.508,317.079 213.020,316.980 213.020 C 316.880 213.020,317.051 213.508,317.360 214.105 M81.826 216.524 C 82.175 216.615,82.744 216.615,83.092 216.524 C 83.440 216.433,83.156 216.359,82.459 216.359 C 81.763 216.359,81.478 216.433,81.826 216.524 M114.923 216.531 C 115.373 216.617,116.024 216.614,116.369 216.523 C 116.715 216.433,116.347 216.362,115.552 216.366 C 114.756 216.370,114.473 216.444,114.923 216.531 M119.450 216.541 C 120.401 216.616,121.866 216.615,122.705 216.539 C 123.545 216.463,122.767 216.402,120.976 216.403 C 119.186 216.404,118.499 216.466,119.450 216.541 M141.139 216.546 C 145.267 216.604,152.021 216.604,156.148 216.546 C 160.276 216.488,156.899 216.440,148.644 216.440 C 140.389 216.440,137.012 216.488,141.139 216.546 M251.999 216.540 C 252.849 216.617,254.151 216.615,254.892 216.538 C 255.633 216.460,254.937 216.398,253.345 216.399 C 251.754 216.400,251.148 216.464,251.999 216.540 M58.695 245.476 C 60.046 245.546,62.162 245.546,63.397 245.475 C 64.632 245.405,63.526 245.348,60.940 245.348 C 58.354 245.349,57.344 245.407,58.695 245.476 M145.303 246.910 C 145.752 246.997,146.403 246.994,146.749 246.903 C 147.095 246.813,146.727 246.742,145.931 246.746 C 145.136 246.750,144.853 246.824,145.303 246.910 M211.475 246.891 C 212.268 247.062,212.283 247.171,212.391 253.731 L 212.502 260.398 212.490 253.617 L 212.477 246.835 211.573 246.776 C 210.792 246.725,210.779 246.741,211.475 246.891 M230.855 246.925 C 234.598 246.984,240.620 246.984,244.237 246.925 C 247.854 246.866,244.792 246.818,237.432 246.818 C 230.072 246.818,227.113 246.867,230.855 246.925 M255.618 246.922 C 256.669 246.995,258.296 246.994,259.235 246.920 C 260.173 246.846,259.313 246.786,257.324 246.787 C 255.335 246.788,254.567 246.848,255.618 246.922 M265.195 246.914 C 265.745 246.997,266.558 246.995,267.003 246.909 C 267.448 246.823,266.998 246.755,266.004 246.758 C 265.009 246.761,264.645 246.831,265.195 246.914 M285.977 246.912 L 288.230 247.050 288.340 253.453 L 288.451 259.855 288.439 253.345 L 288.427 246.835 286.076 246.805 L 283.725 246.774 285.977 246.912 M302.949 246.926 C 302.856 247.075,306.453 247.150,310.941 247.093 L 319.100 246.989 320.219 247.997 L 321.338 249.005 320.276 247.830 L 319.214 246.655 311.165 246.655 C 306.739 246.655,303.041 246.777,302.949 246.926 M368.535 246.907 C 376.161 247.165,383.281 247.174,383.127 246.926 C 383.035 246.777,379.022 246.688,374.210 246.729 C 369.398 246.770,366.844 246.850,368.535 246.907 M111.272 247.257 C 110.800 247.729,110.991 334.355,111.465 334.828 C 111.954 335.317,129.303 335.473,129.601 334.991 C 129.693 334.842,125.675 334.720,120.671 334.720 L 111.573 334.720 111.573 290.868 C 111.573 266.750,111.560 247.016,111.543 247.016 C 111.527 247.016,111.404 247.125,111.272 247.257 M223.679 255.154 L 223.689 263.110 243.817 263.291 C 254.888 263.391,263.870 263.350,263.778 263.201 C 263.686 263.052,254.672 262.929,243.747 262.929 L 223.884 262.929 223.776 255.063 L 223.668 247.197 223.679 255.154 M40.054 250.116 C 38.652 250.877,38.811 251.140,40.235 250.415 C 41.598 249.722,41.840 249.542,41.380 249.562 C 41.198 249.570,40.601 249.820,40.054 250.116 M80.289 250.072 C 80.289 250.171,80.778 250.505,81.374 250.814 C 81.971 251.122,82.459 251.293,82.459 251.194 C 82.459 251.095,81.971 250.761,81.374 250.452 C 80.778 250.143,80.289 249.972,80.289 250.072 M31.445 256.329 L 30.199 257.685 31.555 256.439 C 32.818 255.279,33.078 254.973,32.802 254.973 C 32.741 254.973,32.131 255.583,31.445 256.329 M87.884 255.072 C 87.884 255.127,89.146 256.388,90.687 257.875 L 93.490 260.579 90.787 257.776 C 88.276 255.173,87.884 254.808,87.884 255.072 M129.614 260.217 C 129.614 262.604,129.673 263.533,129.744 262.282 C 129.815 261.031,129.814 259.078,129.742 257.942 C 129.671 256.806,129.613 257.830,129.614 260.217 M27.326 260.375 L 25.899 262.025 27.489 260.501 C 28.363 259.662,29.005 258.919,28.915 258.850 C 28.826 258.781,28.110 259.467,27.326 260.375 M286.438 262.568 C 286.013 263.165,285.746 263.653,285.846 263.653 C 285.945 263.653,286.374 263.165,286.799 262.568 C 287.224 261.971,287.490 261.483,287.391 261.483 C 287.292 261.483,286.863 261.971,286.438 262.568 M60.673 262.100 C 61.123 262.187,61.774 262.183,62.120 262.093 C 62.466 262.002,62.098 261.932,61.302 261.936 C 60.506 261.940,60.223 262.014,60.673 262.100 M95.276 263.410 C 95.833 264.140,96.362 264.738,96.451 264.738 C 96.702 264.738,95.136 262.622,94.673 262.336 C 94.448 262.197,94.719 262.680,95.276 263.410 M54.430 262.929 C 53.974 263.125,53.908 263.240,54.250 263.240 C 54.548 263.240,55.118 263.100,55.515 262.929 C 55.971 262.734,56.038 262.619,55.696 262.619 C 55.398 262.619,54.828 262.759,54.430 262.929 M67.089 262.929 C 67.486 263.100,68.056 263.240,68.354 263.240 C 68.696 263.240,68.630 263.125,68.174 262.929 C 67.776 262.759,67.206 262.619,66.908 262.619 C 66.566 262.619,66.633 262.734,67.089 262.929 M143.455 263.020 C 143.548 263.169,149.133 263.291,155.868 263.291 C 163.870 263.291,168.177 263.420,168.297 263.662 C 168.398 263.866,168.439 263.825,168.388 263.571 C 168.315 263.213,165.520 263.070,155.791 262.929 C 148.914 262.830,143.363 262.871,143.455 263.020 M199.819 262.922 L 187.161 263.110 187.158 298.825 L 187.156 334.539 187.250 298.915 L 187.345 263.291 199.800 263.291 C 207.712 263.291,212.335 263.159,212.477 262.929 C 212.600 262.731,212.651 262.605,212.589 262.651 C 212.528 262.697,206.781 262.819,199.819 262.922 M23.239 265.552 C 22.727 266.198,22.007 267.631,22.194 267.631 C 22.281 267.631,22.688 267.061,23.099 266.365 C 23.845 265.100,23.914 264.699,23.239 265.552 M283.906 266.184 C 283.481 266.781,283.215 267.269,283.314 267.269 C 283.414 267.269,283.843 266.781,284.268 266.184 C 284.693 265.588,284.959 265.099,284.859 265.099 C 284.760 265.099,284.331 265.588,283.906 266.184 M282.098 268.716 C 281.673 269.313,281.406 269.801,281.506 269.801 C 281.605 269.801,282.034 269.313,282.459 268.716 C 282.884 268.119,283.151 267.631,283.051 267.631 C 282.952 267.631,282.523 268.119,282.098 268.716 M43.563 269.530 L 42.134 271.067 43.671 269.637 C 44.516 268.851,45.208 268.159,45.208 268.100 C 45.208 267.827,44.893 268.100,43.563 269.530 M79.385 270.524 C 80.162 271.320,80.879 271.971,80.979 271.971 C 81.078 271.971,80.524 271.320,79.747 270.524 C 78.970 269.729,78.253 269.078,78.153 269.078 C 78.054 269.078,78.608 269.729,79.385 270.524 M279.928 271.790 C 279.312 272.685,278.889 273.418,278.989 273.418 C 279.088 273.418,279.673 272.685,280.289 271.790 C 280.905 270.895,281.328 270.163,281.228 270.163 C 281.129 270.163,280.544 270.895,279.928 271.790 M87.234 271.403 C 85.555 272.591,85.318 272.930,86.737 272.118 C 87.398 271.739,88.110 271.225,88.318 270.976 C 88.853 270.337,88.602 270.436,87.234 271.403 M81.937 273.508 C 82.591 274.583,82.993 274.741,83.398 274.085 C 83.560 273.823,83.497 273.766,83.228 273.932 C 82.982 274.084,82.489 273.840,82.066 273.355 L 81.331 272.514 81.937 273.508 M38.318 276.708 C 37.903 277.523,37.625 278.251,37.700 278.327 C 37.776 278.403,38.192 277.736,38.625 276.846 C 39.611 274.817,39.344 274.697,38.318 276.708 M320.512 281.284 L 320.590 285.895 320.704 281.450 C 320.786 278.278,320.934 277.077,321.224 277.257 C 321.472 277.410,321.530 277.345,321.373 277.090 C 320.660 275.937,320.440 277.009,320.512 281.284 M253.165 278.481 C 252.740 279.078,252.473 279.566,252.573 279.566 C 252.672 279.566,253.101 279.078,253.526 278.481 C 253.951 277.884,254.217 277.396,254.118 277.396 C 254.019 277.396,253.589 277.884,253.165 278.481 M274.141 279.928 C 273.716 280.524,273.450 281.013,273.549 281.013 C 273.649 281.013,274.078 280.524,274.503 279.928 C 274.928 279.331,275.194 278.843,275.094 278.843 C 274.995 278.843,274.566 279.331,274.141 279.928 M250.717 282.007 C 249.781 283.359,249.476 283.906,249.659 283.906 C 249.744 283.906,250.244 283.255,250.771 282.459 C 251.841 280.842,251.794 280.451,250.717 282.007 M325.094 282.401 C 325.496 282.966,326.111 283.657,326.461 283.938 C 326.810 284.219,326.546 283.757,325.874 282.911 C 324.495 281.175,323.983 280.841,325.094 282.401 M347.920 283.183 C 348.551 283.978,349.148 284.629,349.247 284.629 C 349.346 284.629,348.912 283.978,348.282 283.183 C 347.652 282.387,347.055 281.736,346.955 281.736 C 346.856 281.736,347.290 282.387,347.920 283.183 M129.604 288.788 C 129.603 290.579,129.664 291.357,129.740 290.517 C 129.816 289.678,129.817 288.213,129.742 287.262 C 129.667 286.311,129.605 286.998,129.604 288.788 M35.215 291.139 C 35.215 293.228,35.275 294.082,35.348 293.038 C 35.421 291.994,35.421 290.285,35.348 289.241 C 35.275 288.196,35.215 289.051,35.215 291.139 M266.546 290.778 C 266.121 291.374,265.855 291.863,265.954 291.863 C 266.054 291.863,266.483 291.374,266.908 290.778 C 267.333 290.181,267.599 289.693,267.500 289.693 C 267.400 289.693,266.971 290.181,266.546 290.778 M16.004 291.682 C 16.008 292.477,16.082 292.760,16.169 292.310 C 16.255 291.861,16.252 291.210,16.162 290.864 C 16.071 290.518,16.000 290.886,16.004 291.682 M264.738 293.309 C 264.313 293.906,264.047 294.394,264.146 294.394 C 264.246 294.394,264.675 293.906,265.099 293.309 C 265.524 292.712,265.791 292.224,265.691 292.224 C 265.592 292.224,265.163 292.712,264.738 293.309 M357.670 295.389 C 358.342 296.234,358.957 296.926,359.036 296.926 C 359.292 296.926,357.742 294.891,357.084 294.362 C 356.734 294.081,356.998 294.543,357.670 295.389 M335.986 296.203 C 336.818 297.197,337.581 298.011,337.680 298.011 C 337.780 298.011,337.180 297.197,336.347 296.203 C 335.514 295.208,334.752 294.394,334.652 294.394 C 334.553 294.394,335.153 295.208,335.986 296.203 M360.579 299.096 C 361.209 299.892,361.806 300.542,361.905 300.542 C 362.005 300.542,361.570 299.892,360.940 299.096 C 360.310 298.300,359.713 297.649,359.614 297.649 C 359.514 297.649,359.948 298.300,360.579 299.096 M235.081 304.521 C 234.656 305.118,234.390 305.606,234.490 305.606 C 234.589 305.606,235.018 305.118,235.443 304.521 C 235.868 303.924,236.134 303.436,236.035 303.436 C 235.935 303.436,235.506 303.924,235.081 304.521 M37.975 304.659 C 37.975 305.047,39.051 307.052,39.259 307.052 C 39.359 307.052,39.171 306.524,38.842 305.877 C 38.171 304.557,37.975 304.282,37.975 304.659 M344.624 307.356 C 345.026 307.920,345.641 308.612,345.990 308.893 C 346.340 309.174,346.076 308.712,345.404 307.866 C 344.025 306.130,343.513 305.795,344.624 307.356 M83.366 307.772 C 83.239 307.977,83.385 308.037,83.711 307.912 C 84.022 307.793,84.560 307.916,84.905 308.187 C 85.474 308.633,85.486 308.620,85.037 308.047 C 84.489 307.348,83.708 307.219,83.366 307.772 M253.323 309.465 C 252.766 310.195,252.495 310.679,252.720 310.539 C 253.183 310.253,254.749 308.137,254.498 308.137 C 254.409 308.137,253.880 308.735,253.323 309.465 M43.580 312.839 C 44.762 314.033,45.809 315.009,45.909 315.009 C 46.008 315.009,45.123 314.033,43.942 312.839 C 42.761 311.646,41.713 310.669,41.614 310.669 C 41.515 310.669,42.399 311.646,43.580 312.839 M229.295 312.839 C 228.870 313.436,228.604 313.924,228.703 313.924 C 228.802 313.924,229.231 313.436,229.656 312.839 C 230.081 312.242,230.348 311.754,230.248 311.754 C 230.149 311.754,229.720 312.242,229.295 312.839 M249.910 314.286 C 249.485 314.882,249.218 315.371,249.318 315.371 C 249.417 315.371,249.846 314.882,250.271 314.286 C 250.696 313.689,250.962 313.201,250.863 313.201 C 250.764 313.201,250.335 313.689,249.910 314.286 M350.049 314.227 C 350.451 314.792,351.066 315.484,351.415 315.764 C 351.765 316.045,351.501 315.583,350.829 314.738 C 349.449 313.002,348.938 312.667,350.049 314.227 M226.763 316.456 C 226.338 317.052,226.072 317.541,226.171 317.541 C 226.271 317.541,226.700 317.052,227.125 316.456 C 227.550 315.859,227.816 315.371,227.717 315.371 C 227.617 315.371,227.188 315.859,226.763 316.456 M352.581 317.482 C 352.983 318.047,353.598 318.739,353.947 319.019 C 354.296 319.300,354.033 318.838,353.361 317.993 C 351.981 316.257,351.469 315.922,352.581 317.482 M50.995 318.083 C 51.890 318.562,52.785 318.955,52.984 318.955 C 53.183 318.955,52.613 318.562,51.718 318.083 C 50.823 317.604,49.928 317.212,49.729 317.212 C 49.530 317.212,50.099 317.604,50.995 318.083 M62.025 320.072 L 57.685 320.289 61.844 320.336 C 64.132 320.362,66.329 320.243,66.727 320.072 C 67.125 319.901,67.206 319.783,66.908 319.809 C 66.609 319.835,64.412 319.953,62.025 320.072 M29.114 324.051 C 30.295 325.244,31.343 326.221,31.442 326.221 C 31.542 326.221,30.657 325.244,29.476 324.051 C 28.295 322.857,27.247 321.881,27.147 321.881 C 27.048 321.881,27.933 322.857,29.114 324.051 M90.765 325.045 L 88.788 327.125 90.868 325.148 C 92.800 323.311,93.113 322.966,92.845 322.966 C 92.788 322.966,91.852 323.901,90.765 325.045 M358.039 324.401 C 358.460 324.992,358.989 325.590,359.214 325.729 C 359.440 325.869,359.169 325.385,358.612 324.655 C 357.403 323.070,356.948 322.868,358.039 324.401 M320.929 329.837 C 320.929 331.926,320.989 332.780,321.062 331.736 C 321.135 330.692,321.135 328.983,321.062 327.939 C 320.989 326.894,320.929 327.749,320.929 329.837 M360.571 327.656 C 360.992 328.247,361.520 328.845,361.746 328.984 C 361.972 329.124,361.701 328.640,361.144 327.910 C 359.935 326.325,359.479 326.123,360.571 327.656 M364.184 332.180 C 364.476 332.582,365.200 333.440,365.792 334.087 L 366.869 335.262 374.914 335.262 C 379.339 335.262,383.035 335.140,383.127 334.991 C 383.220 334.842,379.608 334.770,375.102 334.831 L 366.908 334.942 365.280 333.195 C 364.385 332.234,363.892 331.777,364.184 332.180 M41.591 332.731 C 42.288 333.112,43.020 333.424,43.219 333.424 C 43.418 333.424,43.011 333.112,42.315 332.731 C 41.618 332.349,40.886 332.038,40.687 332.038 C 40.488 332.038,40.895 332.349,41.591 332.731 M320.666 334.355 C 320.474 334.857,319.386 334.913,311.614 334.822 C 306.756 334.766,302.856 334.842,302.949 334.991 C 303.309 335.572,320.309 335.306,320.803 334.711 C 321.055 334.408,321.176 334.075,321.073 333.972 C 320.969 333.869,320.787 334.041,320.666 334.355 M168.849 334.998 C 169.002 335.150,173.103 335.231,177.963 335.178 L 186.799 335.080 177.685 334.900 C 172.672 334.801,168.696 334.845,168.849 334.998 M223.022 334.991 C 223.114 335.140,237.980 335.262,256.058 335.262 C 274.136 335.262,289.002 335.140,289.094 334.991 C 289.186 334.842,274.320 334.720,256.058 334.720 C 237.796 334.720,222.929 334.842,223.022 334.991 M53.978 336.235 C 54.326 336.326,54.896 336.326,55.244 336.235 C 55.592 336.144,55.307 336.069,54.611 336.069 C 53.915 336.069,53.630 336.144,53.978 336.235 M67.722 336.235 C 68.070 336.326,68.639 336.326,68.987 336.235 C 69.335 336.144,69.051 336.069,68.354 336.069 C 67.658 336.069,67.373 336.144,67.722 336.235 M57.414 336.602 C 57.862 336.689,58.594 336.689,59.042 336.602 C 59.489 336.516,59.123 336.446,58.228 336.446 C 57.333 336.446,56.967 336.516,57.414 336.602 M64.472 336.607 C 65.021 336.690,65.835 336.688,66.280 336.602 C 66.725 336.516,66.275 336.448,65.280 336.451 C 64.286 336.453,63.922 336.524,64.472 336.607 " stroke="none" fill="#9ca8ba" fill-rule="evenodd"></path><path id="path4" d="M197.063 20.344 C 196.826 20.791,196.397 21.564,196.108 22.061 C 195.605 22.929,195.608 22.936,196.192 22.242 C 196.913 21.385,197.925 19.530,197.671 19.530 C 197.574 19.530,197.300 19.896,197.063 20.344 M199.633 49.169 C 199.823 49.829,200.077 50.469,200.199 50.591 C 200.539 50.931,199.949 48.690,199.598 48.306 C 199.428 48.121,199.444 48.509,199.633 49.169 M201.819 55.895 C 201.791 56.884,202.788 57.143,206.621 57.143 C 210.037 57.143,210.537 57.218,210.350 57.704 C 210.227 58.026,210.287 58.171,210.492 58.044 C 211.902 57.173,210.728 56.781,206.709 56.781 C 203.146 56.781,202.516 56.693,202.199 56.148 C 201.996 55.800,201.825 55.686,201.819 55.895 M174.912 57.595 L 174.262 58.770 175.007 57.866 C 175.668 57.064,175.962 56.420,175.666 56.420 C 175.609 56.420,175.270 56.948,174.912 57.595 M187.342 57.237 C 187.342 57.487,187.708 57.917,188.156 58.192 C 188.961 58.687,188.963 58.684,188.297 57.936 L 187.624 57.179 189.924 57.050 L 192.224 56.921 189.783 56.851 C 188.024 56.801,187.342 56.909,187.342 57.237 M193.219 57.040 C 193.766 57.123,194.661 57.123,195.208 57.040 C 195.755 56.957,195.307 56.890,194.213 56.890 C 193.119 56.890,192.672 56.957,193.219 57.040 M193.253 62.131 C 193.740 62.679,193.862 63.204,193.706 64.081 C 193.545 64.982,193.575 65.100,193.827 64.557 C 194.397 63.328,194.249 62.402,193.400 61.880 C 192.596 61.386,192.594 61.390,193.253 62.131 M191.724 70.434 C 191.679 71.299,192.191 71.525,192.620 70.830 C 192.774 70.582,192.720 70.510,192.488 70.654 C 192.274 70.786,192.023 70.608,191.932 70.258 C 191.805 69.773,191.756 69.815,191.724 70.434 M205.017 70.615 C 205.290 70.963,205.738 71.248,206.012 71.248 C 206.286 71.248,206.507 70.963,206.504 70.615 C 206.500 70.095,206.440 70.075,206.170 70.501 C 205.885 70.952,205.755 70.952,205.181 70.501 C 204.577 70.026,204.563 70.035,205.017 70.615 M161.844 79.204 C 161.536 79.801,161.365 80.289,161.464 80.289 C 161.564 80.289,161.898 79.801,162.206 79.204 C 162.515 78.608,162.686 78.119,162.586 78.119 C 162.487 78.119,162.153 78.608,161.844 79.204 M221.349 86.665 C 221.323 87.642,222.405 87.909,225.912 87.793 L 229.476 87.674 225.787 87.598 C 222.705 87.535,222.037 87.418,221.729 86.890 C 221.526 86.542,221.355 86.440,221.349 86.665 M215.190 87.372 C 214.337 87.845,214.329 87.874,215.061 87.879 C 215.487 87.882,215.929 87.640,216.044 87.342 C 216.158 87.043,216.217 86.815,216.173 86.835 C 216.130 86.854,215.687 87.096,215.190 87.372 M167.450 87.794 C 167.450 87.943,168.304 88.019,169.349 87.962 C 172.768 87.776,173.106 87.632,170.253 87.577 C 168.712 87.547,167.450 87.645,167.450 87.794 M186.425 87.793 C 188.734 87.870,190.129 88.070,190.307 88.350 C 190.499 88.651,190.587 88.590,190.591 88.156 C 190.596 87.587,190.201 87.530,186.709 87.598 L 182.821 87.674 186.425 87.793 M207.239 88.156 C 207.243 88.589,207.332 88.651,207.522 88.352 C 207.695 88.080,209.025 87.869,211.043 87.793 L 214.286 87.671 210.759 87.597 C 207.612 87.531,207.234 87.591,207.239 88.156 M171.429 91.252 C 171.429 91.315,171.958 91.844,172.604 92.428 L 173.779 93.490 172.717 92.315 C 171.727 91.219,171.429 90.973,171.429 91.252 M224.644 98.011 C 224.644 98.309,224.784 98.879,224.955 99.277 C 225.151 99.733,225.266 99.799,225.266 99.458 C 225.266 99.159,225.126 98.590,224.955 98.192 C 224.759 97.736,224.644 97.669,224.644 98.011 M184.226 101.167 C 184.907 101.972,185.559 101.966,185.505 101.154 C 185.486 100.865,185.414 100.879,185.287 101.198 C 185.140 101.563,184.920 101.522,184.321 101.017 L 183.544 100.362 184.226 101.167 M239.834 115.009 C 239.834 115.307,239.974 115.877,240.145 116.275 C 240.341 116.731,240.455 116.798,240.455 116.456 C 240.455 116.157,240.316 115.588,240.145 115.190 C 239.949 114.734,239.834 114.667,239.834 115.009 M150.556 117.808 C 151.707 117.880,153.497 117.880,154.534 117.807 C 155.571 117.734,154.629 117.675,152.441 117.676 C 150.253 117.677,149.405 117.736,150.556 117.808 M226.253 118.211 C 226.148 118.381,226.505 118.910,227.046 119.387 L 228.029 120.253 227.189 119.298 C 226.563 118.586,226.471 118.293,226.827 118.151 C 227.144 118.024,227.160 117.950,226.875 117.931 C 226.638 117.915,226.358 118.041,226.253 118.211 M187.151 118.609 C 187.268 118.798,187.888 119.300,188.528 119.724 L 189.693 120.494 188.630 119.582 L 187.567 118.671 189.353 118.533 L 191.139 118.394 189.038 118.329 C 187.782 118.290,187.023 118.403,187.151 118.609 M243.128 118.527 C 243.874 118.606,245.095 118.606,245.841 118.527 C 246.587 118.449,245.976 118.386,244.485 118.386 C 242.993 118.386,242.382 118.449,243.128 118.527 M208.440 118.895 C 211.051 119.009,211.236 119.068,210.791 119.636 C 210.355 120.192,210.370 120.204,210.940 119.757 C 212.098 118.849,211.600 118.625,208.590 118.698 L 205.606 118.771 208.440 118.895 M190.203 120.917 C 190.732 121.576,192.767 123.126,192.767 122.870 C 192.767 122.790,192.075 122.175,191.230 121.504 C 190.384 120.832,189.922 120.568,190.203 120.917 M207.776 121.732 L 206.691 122.664 207.866 121.886 C 208.513 121.458,209.042 121.038,209.042 120.952 C 209.042 120.681,208.888 120.775,207.776 121.732 M193.361 123.327 C 193.588 123.626,193.854 124.195,193.952 124.593 C 194.121 125.280,194.132 125.278,194.171 124.547 C 194.195 124.124,193.929 123.554,193.580 123.281 C 193.030 122.849,193.001 122.855,193.361 123.327 M232.098 123.409 C 232.304 123.663,232.552 124.195,232.650 124.593 C 232.790 125.164,232.836 125.115,232.869 124.361 C 232.895 123.779,232.679 123.315,232.318 123.177 C 231.870 123.005,231.816 123.063,232.098 123.409 M234.539 129.688 L 233.454 130.620 234.629 129.843 C 235.276 129.415,235.805 128.994,235.805 128.908 C 235.805 128.638,235.652 128.732,234.539 129.688 M240.145 129.246 C 240.145 129.345,240.633 129.774,241.230 130.199 C 241.826 130.624,242.315 130.890,242.315 130.791 C 242.315 130.691,241.826 130.262,241.230 129.837 C 240.633 129.412,240.145 129.146,240.145 129.246 M230.553 130.958 C 230.247 132.348,230.791 133.013,231.498 132.113 C 231.971 131.511,231.959 131.503,231.318 132.007 C 230.659 132.526,230.639 132.490,230.882 131.193 C 231.187 129.565,230.903 129.362,230.553 130.958 M166.121 131.174 C 166.156 131.810,166.311 132.204,166.467 132.049 C 166.622 131.895,166.593 131.374,166.403 130.893 C 166.079 130.072,166.061 130.089,166.121 131.174 M205.600 131.706 C 205.712 132.292,205.608 132.742,205.334 132.853 C 205.065 132.961,205.138 133.047,205.515 133.064 C 206.207 133.095,206.284 132.583,205.756 131.465 C 205.468 130.855,205.443 130.893,205.600 131.706 M243.184 131.555 C 244.006 132.526,244.848 132.618,244.841 131.736 C 244.836 131.208,244.780 131.191,244.501 131.631 C 244.216 132.082,244.044 132.055,243.331 131.450 L 242.495 130.741 243.184 131.555 M191.166 132.249 C 190.761 133.304,191.534 133.551,192.465 132.664 C 192.949 132.203,193.093 132.005,192.784 132.223 C 191.440 133.177,191.235 133.207,191.487 132.414 C 191.774 131.510,191.503 131.370,191.166 132.249 M145.507 144.575 C 157.607 144.628,177.299 144.628,189.268 144.575 C 201.238 144.522,191.338 144.479,167.269 144.479 C 143.201 144.479,133.408 144.522,145.507 144.575 M231.374 156.865 C 232.220 156.941,233.603 156.941,234.448 156.865 C 235.294 156.789,234.602 156.727,232.911 156.727 C 231.221 156.727,230.529 156.789,231.374 156.865 M250.708 156.868 C 252.041 156.938,254.320 156.938,255.771 156.869 C 257.222 156.800,256.130 156.744,253.345 156.743 C 250.561 156.742,249.374 156.799,250.708 156.868 M264.647 156.868 C 265.891 156.939,267.925 156.939,269.168 156.868 C 270.411 156.798,269.394 156.740,266.908 156.740 C 264.421 156.740,263.404 156.798,264.647 156.868 M183.092 179.289 C 184.037 179.364,185.583 179.364,186.528 179.289 C 187.473 179.215,186.700 179.154,184.810 179.154 C 182.920 179.154,182.147 179.215,183.092 179.289 M213.857 179.294 C 217.600 179.353,223.622 179.353,227.239 179.294 C 230.856 179.235,227.794 179.187,220.434 179.187 C 213.074 179.187,210.115 179.236,213.857 179.294 M237.361 179.293 C 239.310 179.359,242.403 179.358,244.232 179.293 C 246.062 179.227,244.467 179.174,240.687 179.174 C 236.908 179.175,235.411 179.228,237.361 179.293 M266.621 179.291 C 267.955 179.361,270.233 179.361,271.684 179.292 C 273.135 179.224,272.043 179.167,269.259 179.166 C 266.474 179.166,265.287 179.222,266.621 179.291 M236.088 193.757 C 237.139 193.830,238.767 193.830,239.705 193.755 C 240.643 193.681,239.783 193.621,237.794 193.622 C 235.805 193.623,235.037 193.684,236.088 193.757 M287.161 216.275 L 255.877 216.462 287.049 216.549 C 307.535 216.607,318.298 216.513,318.445 216.275 C 318.568 216.076,318.618 215.953,318.557 216.001 C 318.495 216.049,304.367 216.172,287.161 216.275 M90.892 216.546 C 95.033 216.604,101.706 216.604,105.720 216.546 C 109.735 216.487,106.347 216.440,98.192 216.440 C 90.036 216.440,86.751 216.488,90.892 216.546 M124.503 216.524 C 124.851 216.615,125.420 216.615,125.769 216.524 C 126.117 216.433,125.832 216.359,125.136 216.359 C 124.439 216.359,124.155 216.433,124.503 216.524 M129.215 216.541 C 130.166 216.616,131.631 216.615,132.470 216.539 C 133.310 216.463,132.532 216.402,130.741 216.403 C 128.951 216.404,128.264 216.466,129.215 216.541 M180.533 216.546 C 190.016 216.600,205.640 216.600,215.253 216.546 C 224.866 216.492,217.107 216.449,198.011 216.449 C 178.915 216.449,171.050 216.492,180.533 216.546 M237.363 216.545 C 239.911 216.608,243.979 216.607,246.404 216.545 C 248.830 216.482,246.745 216.431,241.772 216.432 C 236.799 216.432,234.815 216.483,237.363 216.545 M56.153 245.829 C 56.703 245.912,57.517 245.910,57.962 245.824 C 58.406 245.738,57.957 245.670,56.962 245.673 C 55.967 245.676,55.604 245.746,56.153 245.829 M64.290 245.825 C 64.740 245.912,65.391 245.909,65.737 245.818 C 66.082 245.728,65.714 245.657,64.919 245.661 C 64.123 245.665,63.840 245.739,64.290 245.825 M111.559 247.468 C 111.465 247.717,111.430 267.450,111.482 291.320 L 111.576 334.720 111.665 291.055 L 111.754 247.391 120.344 247.287 L 128.933 247.183 120.332 247.100 C 113.722 247.036,111.692 247.121,111.559 247.468 M143.381 247.478 C 143.283 247.732,143.247 251.272,143.301 255.344 L 143.400 262.749 155.877 262.929 L 168.354 263.110 168.538 298.915 L 168.721 334.720 168.809 299.078 C 168.876 271.740,168.796 263.335,168.463 263.002 C 168.142 262.681,164.830 262.568,155.805 262.568 L 143.580 262.568 143.580 254.998 C 143.580 247.435,143.581 247.428,144.394 247.272 L 145.208 247.115 144.383 247.066 C 143.929 247.038,143.478 247.224,143.381 247.478 M147.475 247.278 C 148.125 247.359,149.101 247.357,149.645 247.275 C 150.188 247.192,149.656 247.126,148.463 247.128 C 147.269 247.130,146.825 247.198,147.475 247.278 M166.275 247.287 C 174.480 247.342,187.907 247.342,196.112 247.287 C 204.317 247.233,197.604 247.189,181.193 247.189 C 164.783 247.189,158.070 247.233,166.275 247.287 M228.300 247.275 C 228.847 247.358,229.742 247.358,230.289 247.275 C 230.836 247.192,230.389 247.125,229.295 247.125 C 228.201 247.125,227.753 247.192,228.300 247.275 M246.203 247.281 C 247.048 247.357,248.431 247.357,249.277 247.281 C 250.122 247.205,249.430 247.143,247.740 247.143 C 246.049 247.143,245.357 247.205,246.203 247.281 M257.233 247.284 C 258.576 247.354,260.773 247.354,262.116 247.284 C 263.458 247.215,262.360 247.158,259.675 247.158 C 256.989 247.158,255.891 247.215,257.233 247.284 M271.540 247.287 C 273.988 247.349,277.894 247.349,280.220 247.286 C 282.545 247.223,280.542 247.172,275.769 247.172 C 270.995 247.172,269.092 247.224,271.540 247.287 M302.879 247.468 C 302.785 247.717,302.749 267.450,302.800 291.320 L 302.893 334.720 303.074 290.868 C 303.174 266.750,303.209 247.016,303.153 247.016 C 303.097 247.016,302.974 247.220,302.879 247.468 M306.600 247.272 C 307.048 247.358,307.780 247.358,308.228 247.272 C 308.675 247.185,308.309 247.115,307.414 247.115 C 306.519 247.115,306.153 247.185,306.600 247.272 M383.002 290.886 L 383.183 334.720 383.274 291.159 C 383.325 267.200,383.244 247.475,383.094 247.325 C 382.944 247.175,382.902 266.778,383.002 290.886 M129.608 252.622 C 129.609 254.611,129.669 255.379,129.743 254.328 C 129.816 253.277,129.815 251.649,129.741 250.711 C 129.667 249.773,129.607 250.633,129.608 252.622 M365.090 275.769 C 365.090 290.289,365.135 296.177,365.190 288.852 C 365.244 281.527,365.244 269.647,365.190 262.451 C 365.135 255.255,365.090 261.248,365.090 275.769 M91.139 258.703 C 91.139 258.765,91.668 259.294,92.315 259.878 L 93.490 260.940 92.428 259.765 C 91.438 258.669,91.139 258.423,91.139 258.703 M26.921 261.212 L 25.859 262.387 27.034 261.325 C 28.130 260.335,28.376 260.036,28.097 260.036 C 28.034 260.036,27.505 260.565,26.921 261.212 M193.580 262.838 C 196.912 262.898,202.364 262.898,205.696 262.838 C 209.028 262.779,206.302 262.730,199.638 262.730 C 192.975 262.730,190.249 262.779,193.580 262.838 M224.684 262.827 C 225.231 262.910,226.126 262.910,226.673 262.827 C 227.220 262.744,226.772 262.676,225.678 262.676 C 224.584 262.676,224.137 262.744,224.684 262.827 M233.342 262.838 C 235.867 262.900,240.098 262.900,242.745 262.838 C 245.393 262.776,243.327 262.726,238.156 262.725 C 232.984 262.725,230.818 262.776,233.342 262.838 M252.190 262.838 C 254.339 262.902,257.757 262.902,259.785 262.837 C 261.813 262.773,260.054 262.721,255.877 262.721 C 251.700 262.721,250.040 262.774,252.190 262.838 M186.785 263.382 C 186.690 263.630,186.655 279.864,186.706 299.458 L 186.799 335.081 186.980 299.005 C 187.080 279.164,187.115 262.929,187.059 262.929 C 187.003 262.929,186.880 263.133,186.785 263.382 M95.815 264.492 C 96.280 265.082,96.224 265.243,95.273 266.058 L 94.213 266.968 95.389 266.190 C 96.734 265.300,96.814 265.023,95.931 264.330 C 95.352 263.876,95.343 263.890,95.815 264.492 M129.636 275.045 C 129.636 281.013,129.685 283.505,129.746 280.583 C 129.807 277.661,129.807 272.779,129.746 269.733 C 129.686 266.687,129.636 269.078,129.636 275.045 M261.844 266.546 C 261.420 267.143,261.153 267.631,261.253 267.631 C 261.352 267.631,261.781 267.143,262.206 266.546 C 262.631 265.949,262.897 265.461,262.798 265.461 C 262.698 265.461,262.269 265.949,261.844 266.546 M78.662 269.439 C 79.843 270.633,80.891 271.609,80.990 271.609 C 81.089 271.609,80.205 270.633,79.024 269.439 C 77.842 268.246,76.795 267.269,76.695 267.269 C 76.596 267.269,77.481 268.246,78.662 269.439 M260.036 269.078 C 259.611 269.675,259.345 270.163,259.444 270.163 C 259.544 270.163,259.973 269.675,260.398 269.078 C 260.823 268.481,261.089 267.993,260.990 267.993 C 260.890 267.993,260.461 268.481,260.036 269.078 M320.219 276.812 C 320.113 277.088,320.090 278.024,320.167 278.892 C 320.303 280.421,320.310 280.409,320.371 278.533 C 320.423 276.945,320.535 276.634,320.995 276.811 C 321.317 276.934,321.462 276.874,321.336 276.669 C 321.018 276.155,320.443 276.228,320.219 276.812 M16.720 284.268 C 16.720 284.964,16.795 285.249,16.886 284.901 C 16.977 284.552,16.977 283.983,16.886 283.635 C 16.795 283.287,16.720 283.571,16.720 284.268 M35.165 286.438 C 35.165 287.134,35.240 287.419,35.331 287.071 C 35.422 286.722,35.422 286.153,35.331 285.805 C 35.240 285.457,35.165 285.741,35.165 286.438 M320.434 310.199 C 320.335 323.765,320.376 334.741,320.527 334.591 C 320.678 334.440,320.759 323.341,320.708 309.925 L 320.615 285.533 320.434 310.199 M16.391 288.608 C 16.391 289.901,16.456 290.429,16.536 289.783 C 16.617 289.137,16.617 288.079,16.536 287.432 C 16.456 286.786,16.391 287.315,16.391 288.608 M34.804 291.863 C 34.804 292.559,34.878 292.844,34.969 292.495 C 35.060 292.147,35.060 291.578,34.969 291.230 C 34.878 290.882,34.804 291.166,34.804 291.863 M129.475 313.273 C 129.376 325.148,129.418 334.741,129.569 334.590 C 129.720 334.439,129.801 324.723,129.750 312.999 L 129.656 291.682 129.475 313.273 M16.373 294.033 C 16.373 294.928,16.444 295.294,16.530 294.846 C 16.616 294.399,16.616 293.666,16.530 293.219 C 16.444 292.771,16.373 293.137,16.373 294.033 M258.590 301.627 C 258.165 302.224,257.898 302.712,257.998 302.712 C 258.097 302.712,258.526 302.224,258.951 301.627 C 259.376 301.031,259.642 300.542,259.543 300.542 C 259.443 300.542,259.014 301.031,258.590 301.627 M256.058 305.244 C 255.633 305.841,255.367 306.329,255.466 306.329 C 255.566 306.329,255.995 305.841,256.420 305.244 C 256.844 304.647,257.111 304.159,257.011 304.159 C 256.912 304.159,256.483 304.647,256.058 305.244 M231.826 309.584 C 231.401 310.181,231.135 310.669,231.235 310.669 C 231.334 310.669,231.763 310.181,232.188 309.584 C 232.613 308.987,232.879 308.499,232.780 308.499 C 232.680 308.499,232.251 308.987,231.826 309.584 M43.400 313.020 C 44.480 314.114,45.445 315.009,45.545 315.009 C 45.644 315.009,44.842 314.114,43.761 313.020 C 42.681 311.926,41.715 311.031,41.616 311.031 C 41.517 311.031,42.319 311.926,43.400 313.020 M80.447 312.206 L 79.385 313.382 80.561 312.319 C 81.656 311.329,81.902 311.031,81.623 311.031 C 81.561 311.031,81.032 311.560,80.447 312.206 M77.916 314.738 L 76.854 315.913 78.029 314.851 C 79.125 313.861,79.371 313.562,79.091 313.562 C 79.029 313.562,78.500 314.091,77.916 314.738 M246.530 319.439 C 246.622 319.589,256.215 319.711,267.847 319.711 L 288.997 319.711 288.893 327.288 C 288.835 331.456,288.914 334.740,289.067 334.586 C 289.221 334.432,289.302 330.982,289.248 326.918 L 289.150 319.530 267.756 319.349 C 255.989 319.250,246.437 319.290,246.530 319.439 M60.499 320.700 C 61.450 320.775,62.915 320.774,63.754 320.698 C 64.594 320.622,63.816 320.561,62.025 320.562 C 60.235 320.563,59.548 320.626,60.499 320.700 M29.114 323.689 C 30.696 325.280,32.072 326.582,32.171 326.582 C 32.271 326.582,31.058 325.280,29.476 323.689 C 27.894 322.098,26.518 320.796,26.418 320.796 C 26.319 320.796,27.532 322.098,29.114 323.689 M90.587 324.864 L 88.065 327.486 90.687 324.964 C 93.123 322.622,93.474 322.242,93.209 322.242 C 93.154 322.242,91.974 323.422,90.587 324.864 M222.853 328.460 C 222.816 331.780,222.907 334.572,223.056 334.665 C 223.205 334.758,223.285 332.936,223.233 330.617 C 223.064 323.095,222.923 322.292,222.853 328.460 M84.703 329.631 C 83.023 330.819,82.787 331.158,84.205 330.346 C 84.867 329.967,85.578 329.453,85.786 329.204 C 86.321 328.565,86.070 328.664,84.703 329.631 M79.566 332.550 C 79.069 332.834,78.825 333.067,79.024 333.067 C 79.222 333.067,79.792 332.834,80.289 332.550 C 80.787 332.265,81.031 332.033,80.832 332.033 C 80.633 332.033,80.063 332.265,79.566 332.550 M56.148 336.235 C 56.496 336.326,57.066 336.326,57.414 336.235 C 57.762 336.144,57.477 336.069,56.781 336.069 C 56.085 336.069,55.800 336.144,56.148 336.235 M60.676 336.609 C 61.326 336.690,62.302 336.688,62.846 336.606 C 63.389 336.523,62.857 336.457,61.664 336.459 C 60.470 336.461,60.026 336.529,60.676 336.609 " stroke="none" fill="#718497" fill-rule="evenodd"></path></g></svg>